<svg width="95" height="61" viewBox="0 0 95 61" fill="none" xmlns="http://www.w3.org/2000/svg">
<circle cx="20.7833" cy="40.2167" r="18.7833" fill="#677DEB" stroke="#97A7F9" stroke-width="4"/>
<circle cx="73.7833" cy="40.2167" r="18.7833" fill="#677DEB" stroke="#97A7F9" stroke-width="4"/>
<path d="M73 58.95H74.95V57V36V34.05H73H22H20.05V36V57V58.95H22H73Z" fill="#677DEB" stroke="#97A7F9" stroke-width="3.9"/>
<circle cx="37.861" cy="26.0833" r="18.7833" fill="#677DEB" stroke="#97A7F9" stroke-width="4"/>
<circle cx="56.9999" cy="22.2556" r="20.2556" fill="#677DEB" stroke="#97A7F9" stroke-width="4"/>
<circle cx="20.7833" cy="40.2167" r="16.7833" fill="#677DEB"/>
<circle cx="73.7833" cy="40.2167" r="16.7833" fill="#677DEB"/>
<path d="M19.8999 57H74.0777V35.8H19.8999V57Z" fill="#677DEB"/>
<circle cx="37.861" cy="26.0833" r="16.7833" fill="#677DEB"/>
<circle cx="56.9999" cy="22.2556" r="18.2556" fill="#677DEB"/>
<path d="M55.1063 29.875H52.125V20.5C52.125 19.4687 51.2813 18.625 50.25 18.625H42.75C41.7187 18.625 40.875 19.4687 40.875 20.5V29.875H37.8937C36.225 29.875 35.3812 31.9 36.5625 33.0813L45.1687 41.6875C45.9 42.4188 47.0812 42.4188 47.8125 41.6875L56.4188 33.0813C57.6 31.9 56.775 29.875 55.1063 29.875ZM33.375 48.625C33.375 49.6563 34.2187 50.5 35.25 50.5H57.75C58.7813 50.5 59.625 49.6563 59.625 48.625C59.625 47.5937 58.7813 46.75 57.75 46.75H35.25C34.2187 46.75 33.375 47.5937 33.375 48.625Z" fill="white"/>
</svg>
